#N canvas 355 279 634 300 10;
#X obj 82 39 inlet;
#X obj 82 140 shell;
#X obj 109 170 outlet;
#X obj 227 210 spigot;
#X obj 258 179 tgl 15 0 empty empty debug 17 7 0 10 -262144 -1 -1 0
1;
#X obj 227 232 outlet;
#X obj 258 39 inlet;
#X msg 82 69 scp -r l2orkist@192.168.1.\$1:~/L2Ork/Works/Tramte/tramte-ioii/tramterecordings
~/L2Ork/Works/Tramte/tramte-ioii/tramterecordings, f 83;
#X connect 0 0 7 0;
#X connect 1 0 3 0;
#X connect 1 1 2 0;
#X connect 3 0 5 0;
#X connect 4 0 3 1;
#X connect 6 0 4 0;
#X connect 7 0 1 0;
