#N struct NC-stick float x float y;
#N struct IR-blobs float x float y symbol s;
#N struct CL-L-stick float x float y;
#N struct CL-R-stick float x float y;
#N canvas 397 342 251 210 10;
#X obj 50 -19 cnv 15 241 201 empty empty Tramte\ Microphone 6 15 0
20 -232576 -1 0;
#N canvas 670 294 450 300 guts 0;
#X obj 117 6 adc~;
#X obj 117 49 *~, f 2;
#X obj 243 91 line~;
#X msg 243 69 \$1 100;
#X obj 243 17 nbx 5 14 0 1000 0 0 empty gainsendgui gain 0 -8 0 10
-204786 -1 -1 0 256 0;
#X obj 243 47 / 100;
#N canvas 0 21 1440 828 output 0;
#X obj 543 205 ggee/image @pd_extra/K12/objects/audio_on.png 1;
#X obj 360 42 inlet~;
#N canvas 316 207 286 259 dsp 0;
#X obj 178 43 route dsp;
#X msg 11 184 \; pd dsp \$1;
#X obj 178 131 float;
#X obj 178 22 receive pd;
#X obj 11 36 > 0;
#X obj 178 223 outlet;
#X obj 11 7 r pd-l2ork-k12_main_out;
#X obj 11 62 change -1;
#X connect 0 0 2 0;
#X connect 2 0 5 0;
#X connect 3 0 0 0;
#X connect 4 0 7 0;
#X connect 6 0 4 0;
#X connect 7 0 1 0;
#X connect 7 0 2 0;
#X restore 588 340 pd dsp logic;
#X obj 360 147 *~;
#X obj 360 113 z~ 64;
#X obj 407 113 limiter~;
#X msg 419 90 compress 98 88 0.5;
#X obj 597 430 loadbang;
#X obj 360 405 svf~ 200;
#X obj 382 362 sig~ 200;
#X obj 405 383 sig~ 0.01;
#X obj 360 474 dac~;
#X obj 403 442 *~ 0.5;
#X obj 360 442 *~ 0.5;
#X obj 445 136 preset_node k12;
#X obj 547 208 vsl 34 44 0 100 0 0 pd-l2ork-k12_main_out null empty
0 -9 0 10 -262144 -1 -1 4300 1;
#N canvas 0 0 271 201 level 0;
#X obj 49 8 inlet~;
#X obj 48 140 *~;
#X obj 152 8 inlet;
#X obj 152 124 line~;
#X obj 48 163 outlet~;
#X obj 152 58 / 100;
#X msg 152 102 \$1 50;
#X obj 152 80 pow 2;
#X connect 0 0 1 0;
#X connect 1 0 4 0;
#X connect 2 0 5 0;
#X connect 3 0 1 1;
#X connect 5 0 7 0;
#X connect 6 0 3 0;
#X connect 7 0 6 0;
#X restore 360 66 pd level;
#X obj 419 66 loadbang;
#X obj 588 372 select 0 1;
#X msg 616 408 open @pd_extra/K12/objects/audio_on.png;
#X msg 588 454 open @pd_extra/K12/objects/audio_off.png;
#X obj 503 242 tgl 15 0 \$0-null-send \$0-null-receive empty 17 7 0
10 -262144 -1 -1 0 1;
#X text 500 225 mode;
#X text 500 216 stereo;
#X obj 360 338 *~;
#X obj 465 383 *~;
#X obj 480 362 line~;
#X obj 375 171 loadbang;
#X obj 464 113 preset_node k12;
#X obj 376 317 line~;
#X msg 376 193 1;
#X msg 405 193 0;
#X msg 480 340 \$1 10;
#X msg 383 293 \$1 10;
#X obj 383 271 expr 1-$f1;
#X obj 641 90 sig~ 1;
#X obj 641 135 snapshot~;
#X obj 687 90 loadbang;
#X obj 641 157 change;
#X obj 641 179 s pd-l2ork-k12_main_out;
#X text 577 69 logic for detecting dsp status on startup;
#X obj 687 112 delay 10;
#X obj 593 240 change;
#X obj 593 218 r pd-l2ork-k12_main_out;
#X msg 547 267 set \$1;
#X obj 788 179 value glob_l2ork_stereo;
#X obj 503 267 change;
#X obj 788 116 t b f;
#X obj 788 137 s glob_l2ork_stereo_changed;
#X obj 788 157 r glob_l2ork_stereo_changed;
#X obj 576 101 loadbang;
#X msg 576 145 100;
#X obj 411 504 outlet~;
#X obj 471 504 outlet~;
#X obj 576 123 del 1000;
#X connect 1 0 16 0;
#X connect 2 0 18 0;
#X connect 3 0 24 0;
#X connect 3 0 25 0;
#X connect 4 0 3 0;
#X connect 5 0 3 1;
#X connect 6 0 5 0;
#X connect 7 0 20 0;
#X connect 8 0 13 0;
#X connect 8 1 12 0;
#X connect 9 0 8 1;
#X connect 10 0 8 2;
#X connect 12 0 11 0;
#X connect 12 0 52 0;
#X connect 13 0 11 1;
#X connect 13 0 53 0;
#X connect 14 0 15 0;
#X connect 15 0 16 1;
#X connect 15 0 44 0;
#X connect 16 0 5 0;
#X connect 16 0 4 0;
#X connect 17 0 6 0;
#X connect 18 0 20 0;
#X connect 18 1 19 0;
#X connect 19 0 0 0;
#X connect 20 0 0 0;
#X connect 21 0 28 0;
#X connect 21 0 32 0;
#X connect 21 0 34 0;
#X connect 21 0 46 0;
#X connect 24 0 8 0;
#X connect 25 0 13 0;
#X connect 25 0 12 0;
#X connect 26 0 25 1;
#X connect 27 0 30 0;
#X connect 27 0 31 0;
#X connect 28 0 21 0;
#X connect 29 0 24 1;
#X connect 30 0 29 0;
#X connect 31 0 26 0;
#X connect 32 0 26 0;
#X connect 33 0 29 0;
#X connect 34 0 33 0;
#X connect 35 0 36 0;
#X connect 36 0 38 0;
#X connect 37 0 41 0;
#X connect 38 0 39 0;
#X connect 41 0 36 0;
#X connect 41 0 45 0;
#X connect 42 0 15 0;
#X connect 43 0 42 0;
#X connect 44 0 42 0;
#X connect 45 0 21 0;
#X connect 46 0 47 0;
#X connect 47 0 48 0;
#X connect 47 1 45 0;
#X connect 49 0 45 0;
#X connect 50 0 54 0;
#X connect 51 0 15 0;
#X connect 54 0 51 0;
#X coords 0 -1 1 1 95 99 2 495 167;
#X restore 117 125 pd output;
#N canvas 936 508 450 300 distortion 0;
#X obj 152 53 inlet~;
#X obj 152 225 outlet~;
#X obj 152 139 overdrive~;
#X floatatom 294 121 5 0 0 1 drivefactor - -, f 5;
#X obj 294 89 hsl 128 15 1 100 0 1 empty driveamountsend drive 45 9
1 12 -262131 -1 -1 257 1;
#X floatatom 230 81 5 0 0 0 - - -, f 5;
#X obj 230 37 loadbang;
#X msg 230 59 1;
#X obj 152 161 *~;
#X obj 71 161 *~;
#X obj 207 103 tgl 15 0 empty distortionon on -16 7 0 10 -262130 -1
-1 0 1;
#X obj 10 112 line~;
#X obj 229 163 line~;
#X msg 229 138 \$1 100;
#X msg 10 89 \$1 100;
#X obj 10 66 == 0;
#X text 3 157 dry signal;
#X text 154 180 wet signal;
#X connect 0 0 2 0;
#X connect 0 0 9 0;
#X connect 2 0 8 0;
#X connect 3 0 2 0;
#X connect 4 0 3 0;
#X connect 5 0 2 1;
#X connect 6 0 7 0;
#X connect 7 0 5 0;
#X connect 8 0 1 0;
#X connect 9 0 1 0;
#X connect 10 0 13 0;
#X connect 10 0 15 0;
#X connect 11 0 9 1;
#X connect 12 0 8 1;
#X connect 13 0 12 0;
#X connect 14 0 11 0;
#X connect 15 0 14 0;
#X coords 0 -1 1 1 125 22 1 100 100;
#X restore 117 25 pd distortion;
#X obj 328 46 nbx 5 14 1 100 0 0 driveamountsend driveamountsendgui
drive 0 -8 0 10 -262130 -1 -1 3 256 0;
#X obj 295 187 tabwrite~ micvisual;
#X obj 295 149 tgl 15 0 empty empty empty 17 7 0 10 -262144 -1 -1 1
1;
#X obj 295 109 loadbang;
#X msg 295 129 1;
#N canvas 248 52 450 362 preset 0;
#X obj 21 31 inlet;
#X obj 101 32 inlet;
#X floatatom 21 53 5 0 0 0 gain - -, f 5;
#X floatatom 101 54 5 0 0 0 drive - -, f 5;
#X obj 114 169 coll;
#C restore;
#X msg 199 107 write mic-presets.coll;
#X msg 199 84 read mic-presets.coll;
#X floatatom 114 191 5 0 0 0 - - -, f 5;
#X floatatom 364 213 5 0 0 0 - - -, f 5;
#X msg 21 74 0 \$1;
#X msg 101 75 1 \$1;
#X obj 210 29 bng 15 250 50 0 empty micpresetsave micpresetsave 17
7 0 10 -204786 -1 -1;
#X obj 336 31 loadbang;
#X obj 336 53 del 100;
#X obj 102 244 spigot;
#X obj 176 242 spigot;
#X obj 132 223 tgl 15 0 empty empty empty 17 7 0 10 -262144 -1 -1 0
1;
#X obj 206 222 tgl 15 0 empty empty empty 17 7 0 10 -262144 -1 -1 0
1;
#X obj 180 189 == 0;
#X obj 227 193 == 1;
#X floatatom 102 266 5 0 0 0 - - -, f 5;
#X floatatom 176 264 5 0 0 0 - - -, f 5;
#X msg 410 182 0;
#X msg 356 182 1;
#X obj 31 316 send gainguisend1;
#X obj 148 317 send driveguisend1;
#X obj 356 160 del 350;
#X obj 410 160 del 350;
#X obj 155 33 inlet;
#X obj 155 55 tgl 15 0 empty empty distortion\ on 17 7 0 10 -262130
-1 -1 0 1;
#X msg 155 75 2 \$1;
#X obj 347 126 t b b b b;
#X obj 239 245 spigot;
#X obj 269 225 tgl 15 0 empty empty empty 17 7 0 10 -262144 -1 -1 1
1;
#X floatatom 239 267 5 0 0 0 - - -, f 5;
#X obj 302 160 del 350;
#X msg 302 182 2;
#X obj 270 200 == 2;
#X obj 364 234 t f f;
#X obj 278 322 send distortionongui;
#X connect 0 0 2 0;
#X connect 1 0 3 0;
#X connect 2 0 9 0;
#X connect 3 0 10 0;
#X connect 4 0 7 0;
#X connect 5 0 4 0;
#X connect 6 0 4 0;
#X connect 7 0 14 0;
#X connect 7 0 15 0;
#X connect 7 0 32 0;
#X connect 8 0 38 0;
#X connect 9 0 4 0;
#X connect 10 0 4 0;
#X connect 11 0 5 0;
#X connect 12 0 13 0;
#X connect 13 0 31 0;
#X connect 14 0 20 0;
#X connect 15 0 21 0;
#X connect 16 0 14 1;
#X connect 17 0 15 1;
#X connect 18 0 16 0;
#X connect 19 0 17 0;
#X connect 20 0 24 0;
#X connect 21 0 25 0;
#X connect 22 0 8 0;
#X connect 23 0 8 0;
#X connect 26 0 23 0;
#X connect 27 0 22 0;
#X connect 28 0 29 0;
#X connect 29 0 30 0;
#X connect 30 0 4 0;
#X connect 31 0 35 0;
#X connect 31 1 26 0;
#X connect 31 2 27 0;
#X connect 31 3 6 0;
#X connect 32 0 34 0;
#X connect 33 0 32 1;
#X connect 34 0 39 0;
#X connect 35 0 36 0;
#X connect 36 0 8 0;
#X connect 37 0 33 0;
#X connect 38 0 4 0;
#X connect 38 1 37 0;
#X connect 38 1 19 0;
#X connect 38 1 18 0;
#X restore 308 74 pd preset;
#X obj 390 46 tgl 15 0 empty distortionon distortion 17 7 0 10 -262130
-1 -1 0 1;
#X obj 295 167 metro 100;
#X obj 301 14 s gainsafe;
#N canvas 544 212 450 300 micinput 0;
#X restore 290 226 pd micinput;
#X connect 0 0 7 0;
#X connect 0 1 7 0;
#X connect 1 0 6 0;
#X connect 2 0 1 1;
#X connect 3 0 2 0;
#X connect 4 0 5 0;
#X connect 4 0 13 0;
#X connect 4 0 16 0;
#X connect 5 0 3 0;
#X connect 6 0 9 0;
#X connect 6 1 9 0;
#X connect 7 0 1 0;
#X connect 8 0 13 1;
#X connect 10 0 15 0;
#X connect 11 0 12 0;
#X connect 12 0 10 0;
#X connect 14 0 13 2;
#X connect 15 0 9 0;
#X restore 238 163 pd guts;
#N canvas 0 0 450 300 (subpatch) 0;
#X array micvisual 100 float 3 black black;
#A 0 0 0 0 0 0 0 0 0 0 0 0 0 0 0 0 0 0 0 0 0 0 0 0 0 0 0 0 0 0 0 0
0 0 0 0 0 0 0 0 0 0 0 0 0 0 0 0 0 0 0 0 0 0 0 0 0 0 0 0 0 0 0 0 0 0
0 0 0 0 0 0 0 0 0 0 0 0 0 0 0 0 0 0 0 0 0 0 0 0 0 0 0 0 0 0 0 0 0 0
0;
#X coords 0 1 100 -1 100 75 1;
#X restore 55 96 graph;
#X obj 50 -18 cnv 15 241 104 empty empty Tramte\ Mic 14 12 0 26 -159808
-228856 0;
#X obj 53 54 nbx 5 20 0 1000 0 0 gainsendgui gainguisend1 gain 120
8 0 23 -204786 -1 -228856 0 256 0;
#X obj 53 21 nbx 5 20 1 100 0 0 driveamountsendgui driveguisend1 drive
118 9 0 23 -262130 -1 -228856 3 256 0;
#X obj 171 90 bng 24 250 50 0 micpresetsave empty save\ settings 0
31 0 15 -204786 -1 -1;
#X obj 171 127 tgl 24 0 distortionon distortionongui distortion\ on
3 29 0 13 -262130 -1 -1 0 1;
#X obj 166 162 tramte_lork;
