#N struct NC-stick float x float y;
#N struct IR-blobs float x float y symbol s;
#N struct CL-L-stick float x float y;
#N struct CL-R-stick float x float y;
#N canvas 205 228 258 235 10;
#X obj 180 -8 cnv 15 250 227 empty empty Tramte\ Conductor 21 11 0
18 -232576 -1 0;
#X obj 187 18 tgl 22 0 loadaudiogui1 loadaudio Load\ Audio 29 13 0
12 -188397 -1 -1 0 1;
#X obj 187 46 nbx 5 20 -1e+37 1e+37 0 0 audiogaingui1 audiogainpresetload
Audio\ Gain\ % 77 12 0 12 -204786 -1 -1 100 256 0;
#X obj 187 72 bng 24 250 50 0 savegainpreset empty Save\ Audio\ Gain
28 13 0 12 -204786 -1 -1;
#N canvas 122 596 494 172 guts 0;
#N canvas 55 180 450 300 qtractor 0;
#X obj 139 120 shell;
#X obj 141 -3 inlet;
#X obj 184 122 tgl 15 0 empty empty debug 17 7 0 10 -262144 -1 -1 1
1;
#X obj 265 125 loadbang;
#X msg 265 147 1;
#X obj 131 153 spigot;
#X obj 133 197 print qtractorshell;
#X msg 253 91 pkill qtractor;
#X obj 142 25 sel 1 0;
#X obj 36 31 s qtractoropen;
#X text -4 63 cd into music path;
#X text -5 81 Then open qtractor file;
#X msg 150 53 cd ~/L2Ork/Works/Tramte/tramte-ioii && qtractor Audioplayback.qtr
;
#X connect 0 0 5 0;
#X connect 1 0 8 0;
#X connect 1 0 9 0;
#X connect 2 0 5 1;
#X connect 3 0 4 0;
#X connect 4 0 2 0;
#X connect 5 0 6 0;
#X connect 7 0 0 0;
#X connect 8 0 12 0;
#X connect 8 1 7 0;
#X connect 12 0 0 0;
#X restore 4 65 pd qtractor;
#N canvas 783 206 450 343 audioplayback 0;
#X obj 2 153 cnv 15 414 156 empty empty Audio\ Gain\ Preset 125 14
0 14 -232576 -66577 0;
#X obj 158 -1 cnv 15 178 152 empty empty Audio\ Processing 20 12 0
14 -204786 -66577 0;
#X obj 190 52 adc~ 1 2;
#X obj 189 120 dac~;
#X obj 189 93 *~;
#X obj 236 92 *~;
#X msg 267 53 \$1 100;
#X obj 267 75 line~;
#X obj 367 34 inlet;
#X obj 267 29 / 100;
#X floatatom 305 30 5 0 0 0 - - -, f 5;
#X msg 235 215 write conductor-presets.coll;
#X obj 57 156 loadbang;
#X floatatom 186 263 5 0 0 0 - - -, f 5;
#X obj 186 287 s audiogainpresetload;
#X obj 186 241 coll;
#C restore;
#X msg 12 240 read conductor-presets.coll;
#X msg 186 206 0 \$1;
#X msg 123 214 0;
#X obj 57 188 t b b;
#X obj 123 189 del 100;
#X obj 235 183 r savegainpreset;
#X obj 367 64 > 0;
#X obj 367 109 sel 1;
#X obj 367 138 s alsacontrols;
#X obj 367 87 change;
#X connect 2 0 4 0;
#X connect 2 1 5 0;
#X connect 4 0 3 0;
#X connect 5 0 3 1;
#X connect 6 0 7 0;
#X connect 7 0 5 1;
#X connect 7 0 4 1;
#X connect 8 0 9 0;
#X connect 8 0 17 0;
#X connect 8 0 22 0;
#X connect 9 0 10 0;
#X connect 9 0 6 0;
#X connect 11 0 15 0;
#X connect 12 0 19 0;
#X connect 13 0 14 0;
#X connect 15 0 13 0;
#X connect 16 0 15 0;
#X connect 17 0 15 0;
#X connect 18 0 15 0;
#X connect 19 0 20 0;
#X connect 19 1 16 0;
#X connect 20 0 18 0;
#X connect 21 0 11 0;
#X connect 22 0 25 0;
#X connect 23 0 24 0;
#X connect 25 0 23 0;
#X restore 105 65 pd audioplayback;
#N canvas 819 140 450 300 networkingout 0;
#X msg 189 50 connect 192.168.1.255 5555;
#X obj 263 128 tgl 15 0 empty empty empty 17 7 0 10 -262144 -1 -1 0
1;
#X msg 255 77 disconnect;
#X msg 432 78 connect localhost 5555;
#X text 441 60 Only for testing;
#X text 248 33 The one for l2ork;
#X obj 276 4 inlet;
#X obj 263 148 outlet;
#X obj 187 22 loadbang;
#X obj 263 102 disis_netsend 1;
#X connect 0 0 9 0;
#X connect 1 0 7 0;
#X connect 2 0 9 0;
#X connect 3 0 9 0;
#X connect 6 0 9 0;
#X connect 8 0 0 0;
#X connect 9 0 1 0;
#X restore 218 65 pd networkingout;
#X obj 218 33 r conductorcommunicator;
#N canvas 13 350 450 300 alsamixer 0;
#X obj 156 128 print amixer;
#X obj 156 92 shell;
#X msg 286 158 amixer controls;
#X text 285 134 List all controls;
#X obj 156 15 r alsacontrols;
#X text 156 65 Change alsacontrols to work with laptop mic inputs;
#X msg 156 42 cd ~/L2Ork/Works/Tramte/tramte-ioii && ./alsacontrols
, f 62;
#X obj 292 18 bng 15 250 50 0 empty empty empty 17 7 0 10 -262144 -1
-1;
#X connect 1 0 0 0;
#X connect 2 0 1 0;
#X connect 4 0 6 0;
#X connect 4 0 7 0;
#X connect 6 0 1 0;
#X restore 4 114 pd alsamixer;
#X obj 4 32 r loadaudiogui1;
#X obj 105 32 r audiogaingui1;
#X obj 218 89 s networkconnectiongui1;
#X obj 243 4 print netout;
#N canvas 16 44 533 273 tramterappermiccontrols 0;
#X obj 106 10 loadbang;
#X text 49 164 This is used to turn mic off if tramteconductor is open
;
#X msg 101 99 0;
#X obj 101 121 s gainguisend1;
#X obj 418 0 r gainsendgui;
#X obj 418 22 > 0;
#X obj 418 44 sel 1;
#X obj 170 72 spigot;
#X obj 233 -13 r conductormicrophoneoverride;
#X obj 233 8 == 0;
#X obj 233 32 tgl 15 0 empty empty empty 17 7 0 10 -262144 -1 -1 0
1;
#X obj 233 75 sel 1;
#X obj 504 0 r gainsafe;
#X connect 0 0 2 0;
#X connect 2 0 3 0;
#X connect 4 0 5 0;
#X connect 5 0 6 0;
#X connect 6 0 7 0;
#X connect 7 0 2 0;
#X connect 8 0 9 0;
#X connect 9 0 10 0;
#X connect 10 0 7 1;
#X connect 10 0 11 0;
#X connect 11 0 2 0;
#X connect 12 0 5 0;
#X restore 4 133 pd tramterappermiccontrols;
#X connect 2 0 7 0;
#X connect 3 0 2 0;
#X connect 3 0 8 0;
#X connect 5 0 0 0;
#X connect 6 0 1 0;
#X restore 181 181 pd guts;
#X obj 405 134 tgl 15 0 empty networkconnectiongui1 Network\ Connection
-111 8 0 10 -262144 -1 -1 0 1;
#X obj 180 -9 cnv 15 249 23 empty empty Tramte\ Conductor 28 12 0 18
-159808 -228856 0;
#X text 181 200 Conductor Patch Made by Brandon Hale;
#X obj 405 111 tgl 15 0 conductormicrophoneoverride empty Conductor\ Microphone\ Override
-178 8 0 10 -261234 -1 -1 0 1;
#X obj 181 161 tramte_lork;
#X text 253 161 <--Instrument and transport;
